<svg width="25" height="25" viewBox="0 0 25 25" fill="none" xmlns="http://www.w3.org/2000/svg">
<circle cx="12.5" cy="12.5" r="12.5" fill="#A0A0A0"/>
<path d="M17.75 7.21833V5.5H7.25V7.21833H3.75V9.66667C3.75 11.7708 5.40287 13.4983 7.5335 13.7767C7.83868 14.629 8.37997 15.387 9.10017 15.9705C9.82036 16.554 10.6927 16.9414 11.625 17.0917V18C11.625 18.442 11.4406 18.866 11.1124 19.1785C10.7842 19.4911 10.3391 19.6667 9.875 19.6667H9V21.3333H16V19.6667H15.125C14.6609 19.6667 14.2158 19.4911 13.8876 19.1785C13.5594 18.866 13.375 18.442 13.375 18V17.0917C14.3073 16.9414 15.1796 16.554 15.8998 15.9705C16.62 15.387 17.1613 14.629 17.4665 13.7767C19.5971 13.4983 21.25 11.7708 21.25 9.66667V7.21833H17.75ZM5.5 9.66667V8.885H7.25V12.0233C6.73855 11.8506 6.29578 11.5314 5.98244 11.1094C5.66911 10.6874 5.50059 10.1835 5.5 9.66667ZM19.5 9.66667C19.4993 10.1836 19.3308 10.6876 19.0175 11.1097C18.7042 11.5317 18.2614 11.8512 17.75 12.0242V8.885H19.5V9.66667Z" fill="white"/>
<path d="M10.336 14V13.184C11.824 11.832 12.824 10.752 12.824 9.888C12.824 9.344 12.528 9.048 12.048 9.048C11.64 9.048 11.328 9.32 11.04 9.624L10.264 8.856C10.848 8.232 11.392 7.936 12.24 7.936C13.392 7.936 14.192 8.672 14.192 9.808C14.192 10.832 13.312 11.96 12.4 12.88C12.696 12.84 13.104 12.8 13.376 12.8H14.464V14H10.336Z" fill="#A0A0A0"/>
</svg>
