<svg width="25" height="25" viewBox="0 0 25 25" fill="none" xmlns="http://www.w3.org/2000/svg">
<circle cx="12.5" cy="12.5" r="12.5" fill="#C79050"/>
<path d="M17.75 7.21833V5.5H7.25V7.21833H3.75V9.66667C3.75 11.7708 5.40287 13.4983 7.5335 13.7767C7.83868 14.629 8.37997 15.387 9.10017 15.9705C9.82036 16.554 10.6927 16.9414 11.625 17.0917V18C11.625 18.442 11.4406 18.866 11.1124 19.1785C10.7842 19.4911 10.3391 19.6667 9.875 19.6667H9V21.3333H16V19.6667H15.125C14.6609 19.6667 14.2158 19.4911 13.8876 19.1785C13.5594 18.866 13.375 18.442 13.375 18V17.0917C14.3073 16.9414 15.1796 16.554 15.8998 15.9705C16.62 15.387 17.1613 14.629 17.4665 13.7767C19.5971 13.4983 21.25 11.7708 21.25 9.66667V7.21833H17.75ZM5.5 9.66667V8.885H7.25V12.0233C6.73855 11.8506 6.29578 11.5314 5.98244 11.1094C5.66911 10.6874 5.50059 10.1835 5.5 9.66667ZM19.5 9.66667C19.4993 10.1836 19.3308 10.6876 19.0175 11.1097C18.7042 11.5317 18.2614 11.8512 17.75 12.0242V8.885H19.5V9.66667Z" fill="white"/>
<path d="M12.232 14.112C11.288 14.112 10.624 13.784 10.192 13.28L10.848 12.384C11.208 12.72 11.624 12.96 12.088 12.96C12.64 12.96 13 12.728 13 12.28C13 11.768 12.728 11.464 11.48 11.464V10.456C12.496 10.456 12.816 10.152 12.816 9.68C12.816 9.272 12.576 9.048 12.136 9.048C11.736 9.048 11.432 9.224 11.072 9.544L10.352 8.672C10.904 8.208 11.496 7.936 12.2 7.936C13.432 7.936 14.24 8.512 14.24 9.576C14.24 10.168 13.92 10.632 13.288 10.888V10.928C13.944 11.128 14.432 11.608 14.432 12.376C14.432 13.488 13.416 14.112 12.232 14.112Z" fill="#C79050"/>
</svg>
