<svg width="25" height="25" viewBox="0 0 25 25" fill="none" xmlns="http://www.w3.org/2000/svg">
<circle cx="12.5" cy="12.5" r="12.5" fill="#1D2A3D" fill-opacity="0.8"/>
<path d="M17.75 7.21833V5.5H7.25V7.21833H3.75V9.66667C3.75 11.7708 5.40287 13.4983 7.5335 13.7767C7.83868 14.629 8.37997 15.387 9.10017 15.9705C9.82036 16.554 10.6927 16.9414 11.625 17.0917V18C11.625 18.442 11.4406 18.866 11.1124 19.1785C10.7842 19.4911 10.3391 19.6667 9.875 19.6667H9V21.3333H16V19.6667H15.125C14.6609 19.6667 14.2158 19.4911 13.8876 19.1785C13.5594 18.866 13.375 18.442 13.375 18V17.0917C14.3073 16.9414 15.1796 16.554 15.8998 15.9705C16.62 15.387 17.1613 14.629 17.4665 13.7767C19.5971 13.4983 21.25 11.7708 21.25 9.66667V7.21833H17.75ZM5.5 9.66667V8.885H7.25V12.0233C6.73855 11.8506 6.29578 11.5314 5.98244 11.1094C5.66911 10.6874 5.50059 10.1835 5.5 9.66667ZM19.5 9.66667C19.4993 10.1836 19.3308 10.6876 19.0175 11.1097C18.7042 11.5317 18.2614 11.8512 17.75 12.0242V8.885H19.5V9.66667Z" fill="white"/>
<path d="M12.28 14.112C11.328 14.112 10.672 13.752 10.2 13.288L10.848 12.392C11.184 12.712 11.6 12.96 12.072 12.96C12.648 12.96 13.008 12.648 13.008 12.032C13.008 11.432 12.648 11.112 12.136 11.112C11.808 11.112 11.648 11.176 11.296 11.4L10.672 10.992L10.824 8.04H14.168V9.232H12.048L11.96 10.24C12.176 10.152 12.352 10.12 12.576 10.12C13.584 10.12 14.432 10.712 14.432 12C14.432 13.336 13.424 14.112 12.28 14.112Z" fill="#1D2A3D" fill-opacity="0.8"/>
</svg>
