<svg width="50" height="50" fill="none" xmlns="http://www.w3.org/2000/svg"><path fill="#F5F5F5" d="M0 0h50v50H0z"/><path d="M-486-532a2 2 0 0 1 2-2h7734c1.1 0 2 .895 2 2v1686c0 1.1-.9 2-2 2H-484c-1.105 0-2-.9-2-2V-532Z" fill="#6A6A6A"/><path fill="#F9FAFB" d="M-211-201h1680V823H-211z"/><circle cx="25" cy="25" r="24.5" fill="#1D2A3D" stroke="#172437"/><path d="m9.375 25 6.776-6.717 1.936 1.918L13.247 25l4.84 4.798-1.936 1.919-6.776-6.717Zm11.226 11.842 6.14-24.342 2.657.658-6.14 24.342-2.657-.658Zm11.311-7.045L36.752 25l-4.84-4.797 1.937-1.92L40.625 25l-6.776 6.717-1.937-1.919Z" fill="#fff"/></svg>