<svg width="40" height="40" viewBox="0 0 40 40" fill="none" xmlns="http://www.w3.org/2000/svg">
<circle cx="20" cy="20" r="20" fill="#1D2A3D"/>
<path d="M20.4999 13.2501C20.4999 13.2501 18.9374 11.1667 15.2916 11.1667C11.6458 11.1667 10.0833 13.2501 10.0833 13.2501V27.8334C10.0833 27.8334 11.6458 26.7917 15.2916 26.7917C18.9374 26.7917 20.4999 27.8334 20.4999 27.8334M20.4999 13.2501V27.8334M20.4999 13.2501C20.4999 13.2501 22.0624 11.1667 25.7083 11.1667C29.3541 11.1667 30.9166 13.2501 30.9166 13.2501V27.8334C30.9166 27.8334 29.3541 26.7917 25.7083 26.7917C22.0624 26.7917 20.4999 27.8334 20.4999 27.8334" stroke="white" stroke-width="2" stroke-linecap="round" stroke-linejoin="round"/>
</svg>
