<svg width="60" height="60" viewBox="0 0 60 60" fill="none" xmlns="http://www.w3.org/2000/svg">
<circle cx="30" cy="30" r="29.5" fill="#FF8D8D" fill-opacity="0.4" stroke="#EEA8A8"/>
<path d="M14.93 40.2H15.98V41.7H14.93V40.2ZM18.93 34.69H19.98V43.83H18.93V34.69ZM12.64 42.19L12.51 41.33C14.2 41.32 16.45 41.31 18.4 41.05L18.47 41.82C16.46 42.17 14.29 42.19 12.64 42.19ZM12.69 35.76H18.22V36.59H12.69V35.76ZM15.45 37.04C16.78 37.04 17.69 37.72 17.69 38.74C17.69 39.77 16.78 40.44 15.45 40.44C14.13 40.44 13.22 39.77 13.22 38.74C13.22 37.72 14.13 37.04 15.45 37.04ZM15.45 37.84C14.73 37.84 14.22 38.19 14.22 38.74C14.22 39.3 14.73 39.64 15.45 39.64C16.18 39.64 16.69 39.3 16.69 38.74C16.69 38.19 16.18 37.84 15.45 37.84ZM14.93 34.71H15.98V36.23H14.93V34.71ZM24.1492 39.33H25.1992V41.35H24.1492V39.33ZM28.1792 34.69H29.2292V41.63H28.1792V34.69ZM22.8392 42.8H29.4392V43.65H22.8392V42.8ZM22.8392 40.96H23.8892V43.03H22.8392V40.96ZM21.7492 39.68L21.6092 38.83C23.2892 38.83 25.5392 38.81 27.4692 38.56L27.5392 39.32C25.5792 39.64 23.3992 39.68 21.7492 39.68ZM26.3792 40.05H28.4292V40.79H26.3792V40.05ZM24.5692 35.04C25.8992 35.04 26.8292 35.68 26.8292 36.65C26.8292 37.62 25.8992 38.25 24.5692 38.25C23.2292 38.25 22.3092 37.62 22.3092 36.65C22.3092 35.68 23.2292 35.04 24.5692 35.04ZM24.5692 35.81C23.8192 35.81 23.2992 36.12 23.2992 36.65C23.2992 37.17 23.8192 37.48 24.5692 37.48C25.3092 37.48 25.8292 37.17 25.8292 36.65C25.8292 36.12 25.3092 35.81 24.5692 35.81ZM31.2284 38.36H31.9584C33.8084 38.36 34.8184 38.34 36.0484 38.14L36.1384 38.96C34.8984 39.16 33.8384 39.18 31.9584 39.18H31.2284V38.36ZM31.2284 35.11H35.4584V35.93H32.2784V38.86H31.2284V35.11ZM31.9484 36.72H35.2784V37.52H31.9484V36.72ZM36.9384 34.69H37.9884V39.42H36.9384V34.69ZM37.5484 36.59H39.2684V37.44H37.5484V36.59ZM32.0884 39.84H37.9884V42.12H33.1384V43.35H32.0984V41.37H36.9584V40.65H32.0884V39.84ZM32.0984 42.94H38.2884V43.75H32.0984V42.94ZM42.5477 39.54H43.5977V41.42H42.5477V39.54ZM40.7577 38.99H45.5077V39.83H40.7577V38.99ZM40.7577 35.48H45.4777V36.32H41.8077V39.3H40.7577V35.48ZM41.5077 37.23H45.2877V38.05H41.5077V37.23ZM46.5277 34.68H47.5777V43.84H46.5277V34.68ZM40.2277 42.08L40.0977 41.22C41.7277 41.22 44.0077 41.2 45.9777 40.91L46.0577 41.68C44.0377 42.07 41.8377 42.08 40.2277 42.08Z" fill="#111111"/>
<path d="M35.4999 22.8333L34.3333 21.6666L36.0624 19.9166L34.3333 18.1874L35.4999 16.9999L37.2499 18.7499L38.9791 16.9999L40.1666 18.1874L38.4166 19.9166L40.1666 21.6666L38.9791 22.8333L37.2499 21.1041L35.4999 22.8333ZM28.4999 21.9999C27.5833 21.9999 26.7985 21.6735 26.1458 21.0208C25.493 20.368 25.1666 19.5833 25.1666 18.6666C25.1666 17.7499 25.493 16.9652 26.1458 16.3124C26.7985 15.6596 27.5833 15.3333 28.4999 15.3333C29.4166 15.3333 30.2013 15.6596 30.8541 16.3124C31.5069 16.9652 31.8333 17.7499 31.8333 18.6666C31.8333 19.5833 31.5069 20.368 30.8541 21.0208C30.2013 21.6735 29.4166 21.9999 28.4999 21.9999ZM21.8333 28.6666V26.3333C21.8333 25.861 21.9549 25.4271 22.1983 25.0316C22.4416 24.636 22.7644 24.3338 23.1666 24.1249C24.0277 23.6944 24.9027 23.3716 25.7916 23.1566C26.6805 22.9416 27.5833 22.8338 28.4999 22.8333C29.4166 22.8327 30.3194 22.9405 31.2083 23.1566C32.0971 23.3727 32.9721 23.6955 33.8333 24.1249C34.236 24.3333 34.5591 24.6355 34.8024 25.0316C35.0458 25.4277 35.1671 25.8616 35.1666 26.3333V28.6666H21.8333ZM23.4999 26.9999H33.4999V26.3333C33.4999 26.1805 33.4619 26.0416 33.3858 25.9166C33.3096 25.7916 33.2088 25.6944 33.0833 25.6249C32.3333 25.2499 31.5763 24.9688 30.8124 24.7816C30.0485 24.5944 29.2777 24.5005 28.4999 24.4999C27.7221 24.4994 26.9513 24.5933 26.1874 24.7816C25.4235 24.9699 24.6666 25.251 23.9166 25.6249C23.7916 25.6944 23.6908 25.7916 23.6141 25.9166C23.5374 26.0416 23.4994 26.1805 23.4999 26.3333V26.9999ZM28.4999 20.3333C28.9583 20.3333 29.3508 20.1702 29.6774 19.8441C30.0041 19.518 30.1671 19.1255 30.1666 18.6666C30.166 18.2077 30.003 17.8155 29.6774 17.4899C29.3519 17.1644 28.9594 17.001 28.4999 16.9999C28.0405 16.9988 27.6483 17.1621 27.3233 17.4899C26.9983 17.8177 26.8349 18.2099 26.8333 18.6666C26.8316 19.1233 26.9949 19.5158 27.3233 19.8441C27.6516 20.1724 28.0438 20.3355 28.4999 20.3333Z" fill="#111111"/>
</svg>
