<svg width="16" height="16" viewBox="0 0 16 16" fill="none" xmlns="http://www.w3.org/2000/svg">
<g clip-path="url(#clip0_317_723)">
<path fill-rule="evenodd" clip-rule="evenodd" d="M0.799978 8.79995C0.0639775 8.79995 -0.281623 7.89035 0.268777 7.40235L7.46878 1.00235C7.61518 0.872342 7.80418 0.800537 7.99998 0.800537C8.19577 0.800537 8.38477 0.872342 8.53118 1.00235L15.7312 7.40235C16.2816 7.89035 15.936 8.79995 15.2 8.79995H14.4V14.4C14.4 14.6121 14.3157 14.8156 14.1657 14.9656C14.0156 15.1157 13.8122 15.2 13.6 15.2H2.39998C2.1878 15.2 1.98432 15.1157 1.83429 14.9656C1.68426 14.8156 1.59998 14.6121 1.59998 14.4V8.79995H0.799978ZM5.59998 13.6V9.59995C5.59998 9.38778 5.68426 9.1843 5.83429 9.03427C5.98432 8.88424 6.1878 8.79995 6.39998 8.79995H9.59998C9.81215 8.79995 10.0156 8.88424 10.1657 9.03427C10.3157 9.1843 10.4 9.38778 10.4 9.59995V13.6H12.8V7.99995C12.8 7.85763 12.8379 7.71788 12.9099 7.59511C12.9819 7.47234 13.0854 7.371 13.2096 7.30155L7.99998 2.66955L2.79038 7.30155C2.9146 7.371 3.01805 7.47234 3.09005 7.59511C3.16205 7.71788 3.2 7.85763 3.19998 7.99995V13.6H5.59998ZM7.19998 13.6V10.4H8.79998V13.6H7.19998Z" fill="white"/>
</g>
<defs>
<clipPath id="clip0_317_723">
<rect width="16" height="16" fill="white"/>
</clipPath>
</defs>
</svg>
