<svg width="60" height="60" viewBox="0 0 60 60" fill="none" xmlns="http://www.w3.org/2000/svg">
<circle cx="30" cy="30" r="29.5" fill="#E1E1E1" fill-opacity="0.35" stroke="#DFDFDF"/>
<path d="M25 13.6667H32.5C32.9421 13.6667 33.366 13.8423 33.6786 14.1549C33.9911 14.4675 34.1667 14.8914 34.1667 15.3334V17.0001H32.5V15.3334H25V28.6667H32.5V27.0001H34.1667V28.6667C34.1667 29.1088 33.9911 29.5327 33.6786 29.8453C33.366 30.1578 32.9421 30.3334 32.5 30.3334H25C24.558 30.3334 24.1341 30.1578 23.8215 29.8453C23.509 29.5327 23.3334 29.1088 23.3334 28.6667V15.3334C23.3334 14.8914 23.509 14.4675 23.8215 14.1549C24.1341 13.8423 24.558 13.6667 25 13.6667Z" fill="#1D2A3D"/>
<path d="M33.4083 24.9916L34.5833 26.1666L38.75 21.9999L34.5833 17.8333L33.4083 19.0083L35.5583 21.1666H27.5V22.8333H35.5583L33.4083 24.9916Z" fill="#1D2A3D"/>
<path d="M12.46 42.9H20.74V43.76H12.46V42.9ZM16.06 41.04H17.1V43.25H16.06V41.04ZM13.43 36.33H19.75V39.22H14.49V40.92H13.45V38.39H18.71V37.17H13.43V36.33ZM13.45 40.49H19.96V41.34H13.45V40.49ZM22.5292 36.6H28.3692V37.44H22.5292V36.6ZM21.6592 42.7H29.9192V43.56H21.6592V42.7ZM27.8092 36.6H28.8492V37.59C28.8492 38.81 28.8492 40.09 28.5092 42.02L27.4592 41.92C27.8092 40.11 27.8092 38.77 27.8092 37.59V36.6ZM33.2884 36.36C34.6484 36.36 35.6284 37.61 35.6284 39.58C35.6284 41.55 34.6484 42.81 33.2884 42.81C31.9284 42.81 30.9484 41.55 30.9484 39.58C30.9484 37.61 31.9284 36.36 33.2884 36.36ZM33.2884 37.31C32.4984 37.31 31.9484 38.16 31.9484 39.58C31.9484 41.01 32.4984 41.87 33.2884 41.87C34.0784 41.87 34.6284 41.01 34.6284 39.58C34.6284 38.16 34.0784 37.31 33.2884 37.31ZM36.8884 35.69H37.9384V44.83H36.8884V35.69ZM37.6984 39.25H39.3584V40.12H37.6984V39.25ZM40.0477 39.79H48.3277V40.64H40.0477V39.79ZM43.6477 40.16H44.6777V41.58H43.6477V40.16ZM43.6277 41.98H44.5177V42.21C44.5177 43.57 43.0677 44.58 40.9577 44.8L40.6177 44C42.4177 43.83 43.6277 43.06 43.6277 42.21V41.98ZM43.8077 41.98H44.6977V42.21C44.6977 43.09 45.8877 43.84 47.6977 44L47.3677 44.8C45.2777 44.58 43.8077 43.61 43.8077 42.21V41.98ZM44.1777 35.81C46.1877 35.81 47.4377 36.43 47.4377 37.51C47.4377 38.58 46.1877 39.21 44.1777 39.21C42.1777 39.21 40.9277 38.58 40.9277 37.51C40.9277 36.43 42.1777 35.81 44.1777 35.81ZM44.1777 36.6C42.8077 36.6 42.0077 36.92 42.0077 37.51C42.0077 38.08 42.8077 38.41 44.1777 38.41C45.5477 38.41 46.3577 38.08 46.3577 37.51C46.3577 36.92 45.5477 36.6 44.1777 36.6Z" fill="#1D2A3D"/>
</svg>
