<svg width="50" height="50" viewBox="0 0 50 50" fill="none" xmlns="http://www.w3.org/2000/svg">
<circle cx="25" cy="25" r="25" fill="#1D2A3D"/>
<path d="M17.5 12.5H28.75C29.413 12.5 30.0489 12.7634 30.5178 13.2322C30.9866 13.7011 31.25 14.337 31.25 15V17.5H28.75V15H17.5V35H28.75V32.5H31.25V35C31.25 35.663 30.9866 36.2989 30.5178 36.7678C30.0489 37.2366 29.413 37.5 28.75 37.5H17.5C16.837 37.5 16.2011 37.2366 15.7322 36.7678C15.2634 36.2989 15 35.663 15 35V15C15 14.337 15.2634 13.7011 15.7322 13.2322C16.2011 12.7634 16.837 12.5 17.5 12.5Z" fill="white"/>
<path d="M30.1125 29.4875L31.875 31.25L38.125 25L31.875 18.75L30.1125 20.5125L33.3375 23.75H21.25V26.25H33.3375L30.1125 29.4875Z" fill="white"/>
</svg>
