<svg width="50" height="50" viewBox="0 0 50 50" fill="none" xmlns="http://www.w3.org/2000/svg">
<circle cx="25" cy="25" r="25" fill="#1D2A3D"/>
<path d="M25 11.875C17.752 11.875 11.875 17.752 11.875 25C11.875 32.248 17.752 38.125 25 38.125C32.248 38.125 38.125 32.248 38.125 25C38.125 17.752 32.248 11.875 25 11.875ZM25 35.8984C18.9824 35.8984 14.1016 31.0176 14.1016 25C14.1016 18.9824 18.9824 14.1016 25 14.1016C31.0176 14.1016 35.8984 18.9824 35.8984 25C35.8984 31.0176 31.0176 35.8984 25 35.8984Z" fill="white"/>
<path d="M23.5938 30.1562C23.5938 30.5292 23.7419 30.8869 24.0056 31.1506C24.2694 31.4143 24.627 31.5625 25 31.5625C25.373 31.5625 25.7306 31.4143 25.9944 31.1506C26.2581 30.8869 26.4062 30.5292 26.4062 30.1562C26.4062 29.7833 26.2581 29.4256 25.9944 29.1619C25.7306 28.8982 25.373 28.75 25 28.75C24.627 28.75 24.2694 28.8982 24.0056 29.1619C23.7419 29.4256 23.5938 29.7833 23.5938 30.1562ZM24.2969 26.875H25.7031C25.832 26.875 25.9375 26.7695 25.9375 26.6406V18.6719C25.9375 18.543 25.832 18.4375 25.7031 18.4375H24.2969C24.168 18.4375 24.0625 18.543 24.0625 18.6719V26.6406C24.0625 26.7695 24.168 26.875 24.2969 26.875Z" fill="white"/>
</svg>
