<svg width="80" height="80" viewBox="0 0 80 80" fill="none" xmlns="http://www.w3.org/2000/svg">
<rect width="80" height="80" fill="#F5F5F5"/>
<path d="M-1570 -1092C-1570 -1093.1 -1569.1 -1094 -1568 -1094H2188C2189.1 -1094 2190 -1093.1 2190 -1092V483C2190 484.105 2189.1 485 2188 485H-1568C-1569.1 485 -1570 484.105 -1570 483V-1092Z" fill="#6A6A6A"/>
<path d="M-1568 -1093H2188V-1095H-1568V-1093ZM2189 -1092V483H2191V-1092H2189ZM2188 484H-1568V486H2188V484ZM-1569 483V-1092H-1571V483H-1569ZM-1568 484C-1568.55 484 -1569 483.552 -1569 483H-1571C-1571 484.657 -1569.66 486 -1568 486V484ZM2189 483C2189 483.552 2188.55 484 2188 484V486C2189.66 486 2191 484.657 2191 483H2189ZM2188 -1093C2188.55 -1093 2189 -1092.55 2189 -1092H2191C2191 -1093.66 2189.66 -1095 2188 -1095V-1093ZM-1568 -1095C-1569.66 -1095 -1571 -1093.66 -1571 -1092H-1569C-1569 -1092.55 -1568.55 -1093 -1568 -1093V-1095Z" fill="black" fill-opacity="0.1"/>
<circle cx="40" cy="40" r="39.5" fill="#1D2A3D" stroke="#172437"/>
<path d="M15 39.9989L25.8415 29.2526L28.9384 32.3224L21.1939 39.9989L28.9384 47.6754L25.8415 50.7452L15 39.9989ZM32.9618 58.9471L42.787 20L47.036 21.0529L37.213 60L32.9618 58.9471ZM51.0594 47.6754L58.8039 39.9989L51.0594 32.3224L54.1585 29.2526L65 39.9989L54.1585 50.7452L51.0594 47.6754Z" fill="white"/>
</svg>
