<svg width="12" height="12" viewBox="0 0 12 12" fill="none" xmlns="http://www.w3.org/2000/svg">
<path fill-rule="evenodd" clip-rule="evenodd" d="M3.70916 8.208L3.54842 9.95925C3.54548 9.98979 3.55273 10.0204 3.56924 10.0472C3.58576 10.0739 3.61077 10.0956 3.64104 10.1093C3.67131 10.1231 3.70544 10.1283 3.73901 10.1242C3.77257 10.1202 3.80403 10.1072 3.82931 10.0868L5.66045 8.61375L6.14848 8.6235L6.32496 8.625C7.72939 8.625 8.88276 8.295 9.65582 7.74225C10.3932 7.21575 10.8821 6.42225 10.8821 5.25C10.8821 4.07775 10.3932 3.285 9.65582 2.75775C8.88276 2.205 7.72939 1.875 6.32496 1.875C4.92053 1.875 3.76716 2.205 2.99411 2.75775C2.25668 3.285 1.76782 4.07775 1.76782 5.25C1.76782 6.486 2.31136 7.3065 3.13331 7.836L3.70916 8.208ZM4.65456 10.9268L6.12114 9.74775C6.18742 9.75 6.25536 9.75 6.32496 9.75C9.52822 9.75 12.125 8.25 12.125 5.25C12.125 2.25 9.52822 0.75 6.32496 0.75C3.12171 0.75 0.524963 2.25 0.524963 5.25C0.524963 6.83775 1.25245 8.0055 2.41162 8.7525L2.30971 9.8655C2.28632 10.12 2.34771 10.375 2.48596 10.5976C2.62421 10.8203 2.83297 11.0003 3.08532 11.1145C3.33767 11.2287 3.62204 11.2719 3.90174 11.2384C4.18145 11.2049 4.44366 11.0964 4.65456 10.9268Z" fill="#909090"/>
</svg>
