<svg width="20" height="20" viewBox="0 0 20 20" fill="none" xmlns="http://www.w3.org/2000/svg">
<path d="M14.1666 4.99984H18.3333V6.6665H16.6666V17.4998C16.6666 17.7208 16.5788 17.9328 16.4225 18.0891C16.2663 18.2454 16.0543 18.3332 15.8333 18.3332H4.16663C3.94561 18.3332 3.73365 18.2454 3.57737 18.0891C3.42109 17.9328 3.33329 17.7208 3.33329 17.4998V6.6665H1.66663V4.99984H5.83329V2.49984C5.83329 2.27882 5.92109 2.06686 6.07737 1.91058C6.23365 1.7543 6.44561 1.6665 6.66663 1.6665H13.3333C13.5543 1.6665 13.7663 1.7543 13.9225 1.91058C14.0788 2.06686 14.1666 2.27882 14.1666 2.49984V4.99984ZM15 6.6665H4.99996V16.6665H15V6.6665ZM11.1783 11.6665L12.6516 13.1398L11.4733 14.3182L9.99996 12.8448L8.52663 14.3182L7.34829 13.1398L8.82163 11.6665L7.34829 10.1932L8.52663 9.01484L9.99996 10.4882L11.4733 9.01484L12.6516 10.1932L11.1783 11.6665ZM7.49996 3.33317V4.99984H12.5V3.33317H7.49996Z" fill="#909090"/>
</svg>
