<svg width="18" height="18" viewBox="0 0 18 18" fill="none" xmlns="http://www.w3.org/2000/svg">
<path fill-rule="evenodd" clip-rule="evenodd" d="M12.8509 1.125C13.9182 1.125 14.9417 1.54897 15.6964 2.30364C16.4511 3.05831 16.875 4.08186 16.875 5.14913C16.875 5.45288 16.7535 5.74537 16.5375 5.96137L15.9435 6.5565L13.7261 8.77387L8.03477 14.4653C7.56355 14.9362 6.96347 15.2572 6.31015 15.3878L3.34239 15.9818C3.16073 16.0182 2.97288 16.0091 2.79554 15.9555C2.6182 15.9018 2.45686 15.8052 2.32584 15.6742C2.19483 15.5432 2.0982 15.3818 2.04455 15.2045C1.99089 15.0271 1.98186 14.8393 2.01827 14.6576L2.61227 11.6899C2.74281 11.0365 3.06379 10.4365 3.53477 9.96525L9.22615 4.27387L12.0386 1.46138C12.2535 1.2465 12.546 1.125 12.8509 1.125ZM10.2521 5.63512L4.7284 11.1589C4.493 11.3943 4.33252 11.6942 4.26715 12.0206L3.83965 14.1615L5.9794 13.734C6.30626 13.6688 6.60651 13.5083 6.84227 13.2728L12.366 7.749C12.3164 7.20478 12.0777 6.69516 11.6913 6.30875C11.3049 5.92233 10.7952 5.68358 10.251 5.634L10.2521 5.63512ZM13.7374 6.37537C13.3294 5.42651 12.5733 4.67004 11.6246 4.2615L13.0646 2.8215C14.184 2.92275 15.0761 3.816 15.1774 4.9365L13.7374 6.3765V6.37537Z" fill="#909090"/>
</svg>
