<svg width="32" height="32" viewBox="0 0 32 32" fill="none" xmlns="http://www.w3.org/2000/svg">
<g id="simple-icons:notion" clip-path="url(#clip0_701_2101)">
<path id="Vector" d="M5.94531 5.61082C6.93998 6.41882 7.31331 6.35749 9.18264 6.23216L26.8026 5.17482C27.176 5.17482 26.8653 4.80149 26.7413 4.74016L23.8133 2.62416C23.2533 2.18949 22.5053 1.69082 21.0733 1.81482L4.01331 3.06016C3.39198 3.12149 3.26664 3.43349 3.51464 3.68149L5.94531 5.61082ZM7.00264 9.71749V28.2562C7.00264 29.2522 7.49998 29.6255 8.62131 29.5628L27.9853 28.4428C29.1066 28.3815 29.232 27.6962 29.232 26.8868V8.47216C29.232 7.66416 28.9213 7.22816 28.2346 7.28949L7.99864 8.47216C7.25198 8.53482 7.00264 8.90949 7.00264 9.71749ZM26.1186 10.7108C26.2426 11.2708 26.1186 11.8308 25.5586 11.8948L24.6253 12.0815V25.7668C23.8146 26.2028 23.068 26.4522 22.4453 26.4522C21.448 26.4522 21.1986 26.1402 20.452 25.2082L14.3493 15.6268V24.8962L16.28 25.3335C16.28 25.3335 16.28 26.4535 14.7226 26.4535L10.4266 26.7015C10.3026 26.4535 10.4266 25.8308 10.8626 25.7068L11.9826 25.3962V13.1388L10.4293 13.0135C10.304 12.4535 10.616 11.6455 11.4866 11.5828L16.0946 11.2722L22.4466 20.9775V12.3908L20.8266 12.2055C20.7026 11.5202 21.2 11.0228 21.8226 10.9615L26.1186 10.7108ZM2.58131 1.38016L20.328 0.0734909C22.5066 -0.113176 23.068 0.0108242 24.4373 1.00682L30.1026 4.98816C31.036 5.67216 31.348 5.85882 31.348 6.60549V28.4428C31.348 29.8108 30.8506 30.6215 29.108 30.7442L8.49731 31.9895C7.19064 32.0522 6.56664 31.8655 5.88131 30.9935L1.70931 25.5802C0.962644 24.5842 0.651978 23.8388 0.651978 22.9668V3.55616C0.651978 2.43749 1.15064 1.50282 2.58131 1.38016Z" fill="#909090"/>
</g>
<defs>
<clipPath id="clip0_701_2101">
<rect width="32" height="32" fill="white"/>
</clipPath>
</defs>
</svg>
