<svg width="14" height="14" viewBox="0 0 14 14" fill="none" xmlns="http://www.w3.org/2000/svg">
<path d="M6.98964 0.250001C6.14502 0.249775 5.32437 0.521447 4.65721 1.02214C3.99005 1.52283 3.51437 2.22404 3.30524 3.01508C3.09612 3.80613 3.16545 4.64197 3.50231 5.39069C3.83917 6.13941 4.42437 6.75838 5.16554 7.1499C3.84404 7.52288 2.67856 8.29058 1.83605 9.34305C0.993528 10.3955 0.517202 11.6787 0.4753 13.0089C0.473079 13.0779 0.484937 13.1466 0.510198 13.2111C0.535458 13.2756 0.573625 13.3347 0.622517 13.3849C0.671409 13.4352 0.730067 13.4756 0.795137 13.5039C0.860208 13.5323 0.930416 13.5479 1.00175 13.55H12.9783C13.1222 13.5458 13.2585 13.4865 13.3572 13.3852C13.456 13.2838 13.509 13.1487 13.5047 13.0096C13.4628 11.6794 12.9865 10.3962 12.144 9.34375C11.3014 8.29128 10.136 7.52358 8.81447 7.1506C9.55608 6.75922 10.1417 6.14018 10.4788 5.39124C10.8159 4.6423 10.8853 3.80614 10.676 3.01483C10.4668 2.22351 9.99077 1.52213 9.32321 1.02145C8.65565 0.520774 7.83457 0.249335 6.98964 0.250001Z" fill="#1D2A3D"/>
</svg>
