<svg width="40" height="40" viewBox="0 0 40 40" fill="none" xmlns="http://www.w3.org/2000/svg">
<circle cx="20" cy="20" r="20" fill="#909090" fill-opacity="0.66"/>
<path d="M17.9165 26.25H22.0832V30.4167H17.9165V26.25Z" fill="white"/>
<path fill-rule="evenodd" clip-rule="evenodd" d="M20.0002 13.3333C18.0085 13.3333 16.6668 15.1433 16.6668 16.6667H13.3335C13.3335 13.6633 15.8268 10 20.0002 10C24.1602 10 26.6668 13.57 26.6668 16.6667C26.6668 19.2967 24.8202 20.63 23.6768 21.455L23.4835 21.595C22.2252 22.515 21.6668 23.0383 21.6668 24.1667H18.3335C18.3335 21.23 20.2685 19.8167 21.5118 18.9083L21.5168 18.905C22.9035 17.89 23.3335 17.505 23.3335 16.6667C23.3335 15.0833 22.0068 13.3333 20.0002 13.3333Z" fill="white"/>
</svg>
