<svg width="22" height="22" viewBox="0 0 22 22" fill="none" xmlns="http://www.w3.org/2000/svg">
<g clip-path="url(#clip0_667_731)">
<path d="M21.4329 4.86077L15.4329 20.3608C15.3736 20.5143 15.2773 20.6508 15.1525 20.7581C15.0278 20.8655 14.8784 20.9404 14.7178 20.9762C14.5571 21.012 14.3901 21.0076 14.2316 20.9634C14.0731 20.9192 13.9279 20.8365 13.8089 20.7228L10.4269 17.4878L8.35295 19.5608C8.28297 19.6305 8.19388 19.678 8.09695 19.6972C8.00001 19.7163 7.89956 19.7063 7.80829 19.6685C7.71703 19.6306 7.63903 19.5665 7.58415 19.4844C7.52927 19.4022 7.49997 19.3056 7.49995 19.2068V14.6878L2.30895 9.72277C2.18015 9.59955 2.08663 9.44414 2.03807 9.27263C1.98951 9.10113 1.98767 8.91976 2.03275 8.74731C2.07783 8.57485 2.16818 8.41758 2.29445 8.29178C2.42072 8.16597 2.57833 8.0762 2.75095 8.03177L20.2509 3.53177C20.4289 3.48619 20.6159 3.49049 20.7915 3.5442C20.9672 3.59791 21.1246 3.69894 21.2466 3.83623C21.3686 3.97352 21.4504 4.14175 21.4831 4.32247C21.5158 4.5032 21.4981 4.68944 21.4319 4.86077H21.4329ZM18.9999 6.00077L8.03195 13.1518L9.76695 14.8118L18.9999 6.00077Z" fill="white"/>
</g>
<defs>
<clipPath id="clip0_667_731">
<rect width="22" height="22" fill="white"/>
</clipPath>
</defs>
</svg>
