<svg width="70" height="60" viewBox="0 0 70 60" fill="none" xmlns="http://www.w3.org/2000/svg">
<path id="Vector" d="M69.6621 56.3265L37.1639 1.22449C36.6796 0.405612 35.8437 0 35 0C34.1563 0 33.3126 0.405612 32.8361 1.22449L0.337898 56.3265C-0.622985 57.9643 0.580072 60 2.50184 60H67.4982C69.4199 60 70.623 57.9643 69.6621 56.3265ZM32.5001 22.6531C32.5001 22.3163 32.7814 22.0408 33.1251 22.0408H36.8749C37.2186 22.0408 37.4999 22.3163 37.4999 22.6531V36.7347C37.4999 37.0714 37.2186 37.3469 36.8749 37.3469H33.1251C32.7814 37.3469 32.5001 37.0714 32.5001 36.7347V22.6531ZM35 49.5918C34.0187 49.5722 33.0844 49.1766 32.3976 48.4898C31.7107 47.803 31.326 46.8798 31.326 45.9184C31.326 44.9569 31.7107 44.0337 32.3976 43.3469C33.0844 42.6602 34.0187 42.2645 35 42.2449C35.9813 42.2645 36.9156 42.6602 37.6024 43.3469C38.2893 44.0337 38.674 44.9569 38.674 45.9184C38.674 46.8798 38.2893 47.803 37.6024 48.4898C36.9156 49.1766 35.9813 49.5722 35 49.5918Z" fill="#1D2A3D"/>
</svg>
